<svg width="120" height="120" viewBox="0 0 120 120" fill="none" xmlns="http://www.w3.org/2000/svg">
<path d="M77.0345 38.2549C78.5319 39.0079 80.4261 38.7031 81.5988 37.5198C83.1322 35.9959 83.1322 33.5039 81.5988 31.98C80.8591 31.2449 79.8669 30.8326 78.8025 30.8326C77.7381 30.8326 76.7639 31.2449 76.0062 31.98C74.8696 33.1095 74.5449 34.8485 75.1943 36.3186L69.7821 41.6971C69.5476 41.5537 69.3131 41.4282 69.0605 41.3385V33.8983C69.6017 33.7011 70.1069 33.3963 70.5037 32.984C71.2434 32.231 71.6584 31.2628 71.6584 30.2051C71.6584 29.1473 71.2434 28.1792 70.5037 27.4262C69.7641 26.6911 68.7718 26.2788 67.7074 26.2788C66.643 26.2788 65.6688 26.6911 64.9111 27.4262C64.1534 28.1613 63.7565 29.1473 63.7565 30.2051C63.7565 31.2628 64.1715 32.231 64.9111 32.984C65.308 33.3784 65.8132 33.7011 66.3544 33.8983V41.3385C66.1018 41.4282 65.8673 41.5537 65.6328 41.6971L60.2206 36.3186C60.87 34.8485 60.5453 33.1274 59.4087 31.98C58.669 31.2449 57.6768 30.8326 56.6124 30.8326C55.548 30.8326 54.5738 31.2449 53.8161 31.98C52.2826 33.5039 52.2826 35.9959 53.8161 37.5198C55.0068 38.7031 56.9011 38.9899 58.3804 38.2549L63.9369 43.7768C63.7926 44.1712 63.7385 44.5836 63.7385 45.0138C63.7385 46.0537 64.1534 47.0397 64.8931 47.7927C65.6328 48.5278 66.625 48.9401 67.6894 48.9401C68.7538 48.9401 69.728 48.5278 70.4857 47.7927C71.2254 47.0577 71.6403 46.0716 71.6403 45.0138C71.6403 44.6015 71.5681 44.1891 71.4419 43.7768L76.9984 38.2549H77.0345ZM77.9185 35.6373C77.7741 35.4939 77.6839 35.3326 77.6118 35.1354C77.4675 34.6872 77.5757 34.1852 77.9185 33.8624C78.2793 33.5039 78.8746 33.3963 79.3437 33.6115C79.488 33.6832 79.6143 33.7549 79.7225 33.8624C79.7767 33.9162 79.8308 33.97 79.8669 34.0417C80.2096 34.5437 80.1555 35.2071 79.7225 35.6373C79.3617 36.0138 78.7844 36.1035 78.2973 35.8883C78.153 35.8166 78.0267 35.7449 77.9185 35.6373ZM68.6275 31.1015C68.5193 31.2091 68.393 31.2987 68.2487 31.3525C67.9239 31.4959 67.5451 31.4959 67.2384 31.3525C67.0941 31.2808 66.9497 31.1911 66.8595 31.1015C66.625 30.8684 66.4807 30.5457 66.4807 30.2051C66.4807 29.8644 66.607 29.5597 66.8595 29.3087C67.0941 29.0756 67.4188 28.9322 67.7616 28.9322C68.1043 28.9322 68.411 29.0577 68.6636 29.3087C68.8981 29.5417 69.0424 29.8644 69.0424 30.2051C69.0424 30.5457 68.9162 30.8505 68.6636 31.1015H68.6275ZM66.4807 44.9421V44.8883C66.5168 44.5836 66.643 44.3146 66.8415 44.1174C66.8956 44.0636 66.9497 44.0278 67.0038 43.9919C67.2203 43.8306 67.4729 43.7589 67.7255 43.7589C68.0683 43.7589 68.3749 43.8844 68.6275 44.1354C68.862 44.3684 69.0064 44.6911 69.0064 45.0318C69.0064 45.3724 68.8801 45.6772 68.6275 45.9282C68.1224 46.4122 67.3286 46.4122 66.8415 45.9282C66.607 45.6951 66.4626 45.3724 66.4626 45.0318C66.4626 45.0318 66.4626 44.9959 66.4626 44.9601L66.4807 44.9421ZM57.1897 35.8883C56.7026 36.1035 56.1434 36.0138 55.7645 35.6373C55.53 35.4043 55.3856 35.0816 55.3856 34.7409C55.3856 34.4003 55.5119 34.0955 55.7645 33.8445C55.999 33.6115 56.3238 33.468 56.6665 33.468C57.0093 33.468 57.316 33.5935 57.5686 33.8445C57.8933 34.1672 58.0196 34.6692 57.8753 35.1174C57.8031 35.3146 57.7129 35.4939 57.5686 35.6194C57.4603 35.727 57.3521 35.7987 57.1897 35.8704V35.8883Z" fill="#235D9F"/>
<path d="M96.6086 37.1434C95.6885 35.2072 93.8844 33.8446 91.7737 33.4681C90.5288 29.1115 86.5058 26.0279 81.9415 25.9741C80.8771 25.9382 79.8127 26.0996 78.7302 26.4402C76.403 21.9044 71.7846 19.0717 66.643 19H66.4986C61.3931 19 56.7567 21.743 54.3573 26.1713C53.2929 25.7948 52.1924 25.5976 51.0558 25.5797H50.9295C45.2828 25.5797 40.6463 30.1335 40.5742 35.745C40.502 41.4283 45.1024 46.0896 50.8213 46.1613H60.6895C61.4292 46.1613 62.0246 45.5697 62.0246 44.8347C62.0246 44.0996 61.4292 43.508 60.6895 43.508H50.8393C46.5998 43.4542 43.2081 39.994 43.2442 35.7809C43.2983 31.6215 46.7441 28.2331 50.9295 28.2331H51.0197C52.1924 28.2331 53.3289 28.5378 54.3933 29.0578L55.6742 29.7032L56.2335 28.3765C57.9654 24.2709 61.9885 21.6175 66.4806 21.6175H66.6069C71.1171 21.6713 75.1221 24.3964 76.7818 28.5737L77.305 29.8825L78.5859 29.2908C79.6864 28.7888 80.7688 28.5558 81.8874 28.5916C85.5677 28.6275 88.7067 31.2809 89.3562 34.8845L89.5546 35.9602L90.6551 35.996C92.1705 36.0319 93.5236 36.9104 94.1911 38.2729C94.5158 38.9362 95.3096 39.2231 95.9771 38.9004C96.3019 38.739 96.5364 38.4701 96.6627 38.1474C96.789 37.8068 96.7529 37.4482 96.6086 37.1255V37.1434Z" fill="#235D9F"/>
<path d="M93.8664 40.496L91.918 42.5757C91.5572 42.9522 91.052 43.1853 90.5469 43.2032L74.7793 43.3825C74.4185 43.3825 74.0938 43.5259 73.8412 43.7769C73.5886 44.0279 73.4624 44.3685 73.4624 44.7271C73.4624 45.4621 74.0757 46.0358 74.8154 46.0358L90.601 45.8566C91.8458 45.8207 93.0365 45.3008 93.8844 44.4044L95.8328 42.3247C96.338 41.8048 96.3199 40.9442 95.7967 40.4422C95.2735 39.9402 94.4076 39.9582 93.9025 40.4781L93.8664 40.496Z" fill="#235D9F"/>
<path d="M95.8508 88.4902C94.4256 88.4902 93.253 89.6556 93.253 91.0719C93.253 92.4882 94.4256 93.6536 95.8508 93.6536C97.276 93.6536 98.4487 92.4882 98.4487 91.0719C98.4487 89.6556 97.276 88.4902 95.8508 88.4902ZM95.8508 91.807C95.4359 91.807 95.1111 91.4843 95.1111 91.0719C95.1111 90.6596 95.4359 90.3368 95.8508 90.3368C96.2657 90.3368 96.5905 90.6596 96.5905 91.0719C96.5905 91.4843 96.2657 91.807 95.8508 91.807Z" fill="#235D9F"/>
<path d="M99.3689 86.4641C99.3689 86.4641 99.3689 86.3565 99.3689 86.3027V80.8884L98.124 79.6513V75.9043H93.5778V79.6513L92.333 80.8884V86.3207C92.333 86.3207 92.3149 86.4282 92.333 86.482C92.2789 86.6075 92.2428 86.733 92.2428 86.8764C92.2428 87.3964 92.6577 87.8087 93.1809 87.8087H98.5209C99.0441 87.8087 99.4591 87.3964 99.4591 86.8764C99.4591 86.733 99.423 86.6075 99.3689 86.482V86.4641ZM94.2092 81.6414L95.021 80.8346C95.2917 80.5657 95.454 80.1892 95.454 79.8127V77.751H96.2478V79.8127C96.2478 80.2071 96.3921 80.5657 96.6808 80.8346L97.4926 81.6414V85.9083H94.1912V81.6414H94.2092Z" fill="#235D9F"/>
<path d="M62.8182 74.2729C61.4111 74.2729 60.2745 75.4024 60.2745 76.8008C60.2745 78.1992 61.4111 79.3287 62.8182 79.3287C64.2254 79.3287 65.362 78.1992 65.362 76.8008C65.362 75.4024 64.2254 74.2729 62.8182 74.2729ZM62.8182 77.5359C62.4213 77.5359 62.0966 77.2132 62.0966 76.8187C62.0966 76.4243 62.4213 76.1016 62.8182 76.1016C63.2151 76.1016 63.5399 76.4243 63.5399 76.8187C63.5399 77.2132 63.2151 77.5359 62.8182 77.5359Z" fill="#235D9F"/>
<path d="M75.1041 74.2729C73.6969 74.2729 72.5603 75.4024 72.5603 76.8008C72.5603 78.1992 73.6969 79.3287 75.1041 79.3287C76.5112 79.3287 77.6478 78.1992 77.6478 76.8008C77.6478 75.4024 76.5112 74.2729 75.1041 74.2729ZM75.1041 77.5359C74.7072 77.5359 74.3824 77.2132 74.3824 76.8187C74.3824 76.4243 74.7072 76.1016 75.1041 76.1016C75.501 76.1016 75.8257 76.4243 75.8257 76.8187C75.8257 77.2132 75.501 77.5359 75.1041 77.5359Z" fill="#235D9F"/>
<path d="M65.3259 62.9425V58.8369H60.3467V60.9704C60.3467 61.5261 60.8158 61.9923 61.375 61.9923C61.9343 61.9923 62.4033 61.5261 62.4033 60.9704V60.8807H63.2693V63.1397C63.2693 63.57 63.4317 63.9644 63.7383 64.2692L64.6223 65.1477L64.5863 69.8269H59.9678C59.4086 69.8269 58.9395 70.2931 58.9395 70.8488C58.9395 71.4046 59.4086 71.8708 59.9678 71.8708H65.2357C65.5244 71.8708 65.795 71.7453 65.9934 71.5301C66.3903 71.2253 66.6429 70.7592 66.6429 70.2393L66.679 64.2871L65.3079 62.9245L65.3259 62.9425Z" fill="#235D9F"/>
<path d="M59.986 68.8945C60.5453 68.8945 61.0143 68.4463 61.0143 67.8725V65.1475L61.9344 64.251C62.3313 63.8566 62.3313 63.2112 61.9344 62.7988C61.5375 62.3865 60.87 62.4224 60.4911 62.7988L59.517 63.767C59.1742 64.1076 58.9938 64.5379 58.9938 65.004V67.8546C58.9757 68.4104 59.4268 68.8766 59.986 68.8766V68.8945Z" fill="#235D9F"/>
<path d="M78.9647 70.4184C78.9647 70.4184 78.9647 70.2929 78.9647 70.2391L78.9286 69.8088L78.9647 64.2869L77.5936 62.9243V58.8188H72.6144V62.9243L71.2613 64.269L71.2252 70.2032C71.2252 70.2032 71.2252 70.3287 71.2252 70.3825C71.1711 70.508 71.135 70.6514 71.135 70.8128C71.135 71.3686 71.6041 71.8347 72.1634 71.8347H78.0085C78.5678 71.8347 79.0369 71.3686 79.0369 70.8128C79.0369 70.6694 79.0008 70.5259 78.9467 70.3825L78.9647 70.4184ZM73.318 65.1474L74.22 64.251C74.5267 63.9462 74.6891 63.5518 74.6891 63.1215V60.8626H75.555V63.1215C75.555 63.5518 75.7174 63.9462 76.0241 64.251L76.9081 65.1295V69.8088H73.2999V65.1474H73.318Z" fill="#235D9F"/>
<path d="M106.946 69.2349L85.4955 69.2707H84.3229V81.8743L84.2868 99.9998L107 99.8026V69.2528L106.946 69.2349ZM87.1733 72.0496L104.077 72.0138V97.0596L87.1372 97.203L87.1733 79.2389V72.0496Z" fill="#235D9F"/>
<path d="M50.0456 50.1055L52.7697 52.7948H88.5444V67.0298H91.2505V50.1055H50.0456Z" fill="#235D9F"/>
<path d="M59.2462 86.7512V95.8229H53.834C53.0943 95.8229 52.4809 96.4325 52.4809 97.1676C52.4809 97.9026 53.0943 98.5122 53.834 98.5122H76.006C76.7457 98.5122 77.3591 97.9026 77.3591 97.1676C77.3591 96.4325 76.7457 95.8229 76.006 95.8229H69.349V86.7512H82.2842V84.062H49.4862L46.7621 86.7512H59.2462ZM61.9523 87.0202H66.6609V95.805H61.9523V87.0202Z" fill="#235D9F"/>
<path d="M26.2232 84.3742C26.0558 84.2518 25.8967 84.1186 25.7469 83.9754L17.4749 75.7633C17.041 75.331 16.697 74.818 16.4626 74.2535C16.2282 73.689 16.1079 73.0842 16.1088 72.4734V61.1708C16.1079 60.5601 16.2282 59.9552 16.4626 59.3907C16.697 58.8263 17.041 58.3132 17.4749 57.881L25.7469 49.6314C25.8968 49.4923 26.056 49.3632 26.2232 49.2451H24.8445C23.9042 49.2585 23.0057 49.6337 22.3378 50.2919L14.2538 58.2174C13.4355 59.0688 12.9855 60.2052 13.0005 61.3827V72.1868C12.9828 73.3648 13.4332 74.5022 14.2538 75.3521L22.2125 83.2776C22.8954 83.9531 23.8186 84.3337 24.7818 84.3368L26.2232 84.3742Z" fill="#235D9F"/>
<path d="M53.9595 60.8963C53.9563 59.9325 53.5686 59.0092 52.8816 58.3293L44.8603 50.3539C44.0101 49.5386 42.8703 49.0907 41.6893 49.1077H30.7101C29.5208 49.0854 28.3712 49.5337 27.5141 50.3539L19.4928 58.3293C18.8193 59.0172 18.4379 59.9364 18.4275 60.8963V72.1117C18.4231 72.7133 18.5394 73.3097 18.7697 73.866C19 74.4224 19.3395 74.9275 19.7685 75.3517L27.5141 83.0405C28.3749 83.8549 29.522 84.3022 30.7101 84.2866H36.4128V90.6669C36.4128 90.7024 36.42 90.7375 36.434 90.7701C36.448 90.8026 36.4685 90.8321 36.4943 90.8565C36.52 90.881 36.5506 90.9 36.5839 90.9124C36.6173 90.9248 36.6529 90.9303 36.6885 90.9286C36.7234 90.9299 36.7581 90.9238 36.7905 90.911C36.8228 90.8981 36.8521 90.8786 36.8765 90.8539L52.8816 75.0651C53.2229 74.7292 53.4939 74.3294 53.6789 73.8888C53.8639 73.4482 53.9593 72.9755 53.9595 72.498V60.8963ZM47.8683 62.3792C47.8734 62.4314 47.8672 62.484 47.8498 62.5335C47.8325 62.583 47.8046 62.6282 47.768 62.6659C47.6901 62.7389 47.5868 62.7791 47.4797 62.778H43.7197C43.7023 62.7744 43.6843 62.7746 43.667 62.7784C43.6496 62.7823 43.6333 62.7897 43.6191 62.8003C43.6048 62.8109 43.593 62.8244 43.5845 62.8399C43.5759 62.8554 43.5707 62.8726 43.5693 62.8902V74.7536C43.5711 74.8064 43.5619 74.859 43.5423 74.9082C43.5228 74.9574 43.4933 75.002 43.4557 75.0394C43.4181 75.0768 43.3732 75.1061 43.3238 75.1255C43.2743 75.1449 43.2214 75.1541 43.1683 75.1523H40.2731C40.2199 75.1536 40.1671 75.1443 40.1176 75.125C40.0681 75.1058 40.023 75.0769 39.9848 75.0402C39.9459 75.0036 39.9157 74.9589 39.8962 74.9094C39.8767 74.8599 39.8684 74.8066 39.872 74.7536V62.9276C39.8725 62.8919 39.8601 62.8572 39.8371 62.8297C39.8142 62.8023 39.7821 62.784 39.7467 62.778H30.3592C30.3411 62.7744 30.3224 62.7745 30.3043 62.7782C30.2862 62.782 30.269 62.7893 30.2538 62.7998C30.2386 62.8102 30.2257 62.8236 30.2158 62.8392C30.2059 62.8547 30.1993 62.872 30.1963 62.8902V65.5694C30.1952 65.6066 30.2072 65.643 30.23 65.6725C30.2528 65.702 30.2852 65.7228 30.3216 65.7314H34.6707C34.726 65.7268 34.7817 65.7345 34.8337 65.7539C34.8857 65.7733 34.9328 65.8039 34.9715 65.8436C35.0084 65.8815 35.0374 65.9264 35.0568 65.9756C35.0762 66.0248 35.0855 66.0774 35.0843 66.1302V68.448C35.0877 68.4981 35.0808 68.5484 35.0643 68.5959C35.0477 68.6433 35.0216 68.6869 34.9877 68.7242C34.9538 68.7614 34.9127 68.7914 34.8668 68.8125C34.8209 68.8336 34.7713 68.8452 34.7208 68.8468H30.3592C30.3401 68.8432 30.3205 68.8437 30.3016 68.8482C30.2828 68.8527 30.2651 68.8611 30.2497 68.8729C30.2343 68.8846 30.2216 68.8995 30.2124 68.9165C30.2032 68.9334 30.1977 68.9522 30.1963 68.9714V74.7411C30.2014 74.7932 30.1952 74.8459 30.1778 74.8954C30.1605 74.9449 30.1326 74.99 30.096 75.0277C30.013 75.1005 29.9059 75.1404 29.7952 75.1399H26.8875C26.8343 75.1416 26.7814 75.1325 26.7319 75.113C26.6825 75.0936 26.6376 75.0643 26.6 75.0269C26.5624 74.9895 26.5329 74.9449 26.5134 74.8957C26.4938 74.8466 26.4846 74.7939 26.4864 74.7411V59.9991C26.4852 59.9463 26.4945 59.8937 26.5139 59.8445C26.5332 59.7953 26.5622 59.7504 26.5992 59.7125C26.6771 59.6394 26.7804 59.5992 26.8875 59.6003H47.4797C47.5868 59.5992 47.6901 59.6394 47.768 59.7125C47.8061 59.7491 47.8351 59.7941 47.8525 59.8439C47.8699 59.8937 47.8753 59.9469 47.8683 59.9991V62.3792Z" fill="#235D9F"/>
</svg>
