<svg width="80" height="80" viewBox="0 0 80 80" fill="none" xmlns="http://www.w3.org/2000/svg">
<path d="M14.7891 24.7554L16.2113 26.1776C16.6002 26.5665 17.1335 26.7887 17.6891 26.7887H32.8558V29.822C32.8558 30.3887 33.3113 30.8443 33.878 30.8443C34.4446 30.8443 34.9002 30.3887 34.9002 29.822V26.7887H38.7335V29.822C38.7335 30.3887 39.1891 30.8443 39.7558 30.8443C40.3224 30.8443 40.778 30.3887 40.778 29.822V26.7887H44.6113V29.822C44.6113 30.3887 45.0669 30.8443 45.6335 30.8443C46.2002 30.8443 46.6558 30.3887 46.6558 29.822V26.7887H50.4891V41.5443H46.6558V38.4665C46.6558 37.8998 46.2002 37.4443 45.6335 37.4443C45.0669 37.4443 44.6113 37.8998 44.6113 38.4665V41.5443H40.778V38.4665C40.778 37.8998 40.3224 37.4443 39.7558 37.4443C39.1891 37.4443 38.7335 37.8998 38.7335 38.4665V41.5443H34.9002V38.4665C34.9002 37.8998 34.4446 37.4443 33.878 37.4443C33.3113 37.4443 32.8558 37.8998 32.8558 38.4665V41.5443H8.70021V35.0887H15.8002L14.1335 33.422C13.9002 33.1887 13.5669 33.0443 13.2335 33.0443H8.70021V28.5776C8.70021 28.1998 8.54465 27.8331 8.27798 27.5665L6.65576 25.9443V52.1887H38.7002V55.2331H46.8224V52.1887H50.5446V55.2331H58.6669V52.1887H62.3891V55.2331H70.5113V52.1887H73.3224V24.7554H14.7891ZM52.5113 43.5887H56.3446V50.1665H52.5113V43.5887ZM58.3891 35.0998H62.2224V41.5554H58.3891V35.0998ZM58.3891 26.7998H62.2224V33.0665H58.3891V26.7998ZM64.2558 43.5887H71.3002V50.1665H64.2558V43.5887ZM62.2224 43.5887V50.1665H58.3891V43.5887H62.2224ZM71.3002 41.5554H64.2558V35.0998H71.3002V41.5554ZM64.2558 33.0665V26.7998H71.3002V33.0665H64.2558ZM52.5113 26.7998H56.3446V33.0665H52.5113V26.7998ZM52.5113 35.0998H56.3446V41.5554H52.5113V35.0998ZM50.478 43.5887V50.1665H46.6446V43.5887H50.478ZM44.6002 43.5887V50.1665H40.7669V43.5887H44.6002ZM38.7224 43.5887V50.1665H34.8891V43.5887H38.7224ZM32.8446 43.5887V50.1665H8.70021V43.5887H32.8558H32.8446ZM44.778 53.2109H40.7335V52.2109H44.778V53.2109ZM56.6224 53.2109H52.578V52.2109H56.6224V53.2109ZM68.4669 53.2109H64.4224V52.2109H68.4669V53.2109Z" fill="#184685"/>
<path d="M10.4445 26.7888L17.4889 33.8333C17.5778 33.9221 17.6889 33.9999 17.7889 34.0777C18.5445 34.711 19.4778 35.0666 20.4778 35.0666L21.9111 35.0888H46.6334V35.0666H47.7667C48.3334 35.0666 48.7889 34.611 48.7889 34.0444C48.7889 33.511 48.3778 33.0888 47.8556 33.0444C47.8223 33.0444 47.8 33.0221 47.7667 33.0221H20.4778C19.8889 33.0221 19.3445 32.7999 18.9223 32.3777L12.3 25.7555L11.6556 25.111C11.2556 24.711 10.6111 24.711 10.2111 25.111C10.0334 25.2888 9.94448 25.5221 9.92226 25.7555C9.90003 26.0444 9.98892 26.3333 10.2111 26.5444L10.4334 26.7666L10.4445 26.7888Z" fill="#184685"/>
</svg>
